<svg width="1903" height="1463" viewBox="0 0 1903 1463" fill="none" xmlns="http://www.w3.org/2000/svg">
<path d="M1294.44 37H1180.12H1065.81H951.5H837.188H722.875H608.562M1294.44 1426H1180.12H1065.81H951.5H837.188H722.875H608.562M1523.06 1426H1637.38V1426C1763.64 1426 1866 1323.64 1866 1197.38V1078.75V731.5V384.25V265.625C1866 139.359 1763.64 37 1637.38 37V37H1523.06M379.938 37H265.625V37C139.359 37 37 139.359 37 265.625V384.25V731.5V1078.75V1197.37C37 1323.64 139.359 1426 265.625 1426V1426H379.938" stroke="#0DFFCF" stroke-width="74" stroke-linecap="square" stroke-linejoin="round"/>
<path fill-rule="evenodd" clip-rule="evenodd" d="M1053.43 724.459L1054 723.885L1057.44 719.295L1064.32 710.689L1070.06 703.803L1074.64 698.066L1077.51 694.623L1079.23 692.902L1080.38 691.18L1081.53 690.033L1083.82 687.164L1085.54 685.443L1094.14 675.115L1096.44 672.82L1104.46 663.639L1107.9 660.197L1112.49 655.033L1130.84 636.672L1138.87 629.213L1146.9 622.328L1153.78 616.59L1159.52 612L1164.1 608.557L1169.84 603.967L1176.15 599.377L1191.63 589.049L1196.22 586.18L1197.36 585.607L1200.8 583.311L1206.54 579.869L1208.83 578.721L1215.71 574.705L1234.06 565.525L1237.51 564.377L1239.8 563.23L1244.39 561.508L1250.12 559.213L1263.88 554.623L1268.47 553.475L1271.91 552.328L1281.09 550.033L1298.29 546.59L1305.17 545.443L1314.35 544.295L1326.96 543.148L1334.99 542.574L1347.61 542H1359.08L1373.99 542.574L1383.16 543.148L1394.63 544.295L1403.81 545.443L1417.57 547.738L1422.16 548.885L1425.6 549.459L1441.66 553.475L1442.8 554.049L1445.1 554.623L1458.86 559.213L1468.03 562.656L1472.62 564.951L1476.06 566.098L1492.12 574.131L1494.99 575.852L1499 578.148L1500.72 579.295L1504.74 581.59L1506.46 582.738L1509.32 584.459L1512.76 586.754L1520.79 592.492L1525.38 595.934L1531.11 600.525L1534.56 603.393L1540.29 608.557L1550.04 617.738L1558.07 626.344L1565.52 634.951L1570.11 640.689L1573.55 645.279L1582.73 659.049L1589.03 669.951L1594.19 679.705L1601.08 695.77L1603.37 701.508L1607.96 715.279L1609.1 719.869L1610.25 723.311L1612.55 733.639L1613.69 738.229L1614.84 743.967L1615.99 750.852L1617.13 758.885L1618.28 768.066L1619.43 782.984L1620 793.885V811.672L1619.43 824.295L1618.85 833.475L1618.28 839.213L1617.13 848.967L1616.56 853.557L1615.99 856.426L1614.84 863.311L1613.69 869.049L1611.4 879.377L1610.25 883.967L1607.96 892L1604.52 902.328L1602.8 906.918L1601.65 910.361L1601.08 911.508L1599.93 914.377L1598.21 918.393L1597.06 921.262L1588.46 938.475L1585.59 943.639L1582.15 949.377L1578.14 955.689L1575.84 959.131L1571.83 964.869L1566.67 971.754L1562.08 977.492L1558.64 981.508L1554.05 986.672L1540.29 1000.44L1526.53 1011.92L1519.65 1017.08L1513.91 1021.1L1507.03 1025.69L1502.44 1028.56L1495.56 1032.57L1490.4 1035.44L1481.22 1040.03L1472.62 1044.05L1465.74 1046.92L1461.73 1048.64L1457.71 1049.79L1453.7 1051.51L1446.82 1053.8L1434.77 1057.25L1430.19 1058.39L1419.86 1060.69L1414.13 1061.84L1407.82 1062.98L1400.37 1064.13L1391.19 1065.28L1377.43 1066.43L1364.81 1067H1345.32L1332.7 1066.43L1324.67 1065.85L1313.2 1064.7L1308.61 1064.13L1305.17 1063.56L1300.59 1062.98L1297.14 1062.41L1294.85 1061.84L1287.97 1060.69L1267.33 1055.52L1258.15 1052.66L1251.27 1050.36L1240.95 1046.34L1231.77 1042.33L1218.01 1035.44L1207.69 1029.7L1199.66 1025.11L1190.48 1019.38L1183.6 1014.79L1177.87 1010.77L1174.43 1008.48L1162.96 999.869L1157.22 995.279L1144.61 984.951L1134.28 975.77L1112.49 953.967L1099.88 940.197L1090.7 929.869L1082.67 920.689L1076.94 913.803L1063.18 897.164L1054 885.689L1053.43 884.541L1052.85 885.689L1051.71 886.262L1050.56 887.984L1043.68 896.59L1037.94 903.475L1034.5 907.492L1032.21 910.361L1029.34 913.803L1025.33 918.393L1018.45 926.426L1013.86 931.59L996.655 950.525L982.318 965.443L972.569 974.623L959.953 986.098L951.925 992.984L935.868 1005.61L930.134 1009.62L926.693 1011.92L919.238 1017.08L912.357 1021.67L904.902 1026.26L898.02 1030.28L886.551 1036.59L879.67 1040.03L867.054 1045.77L861.319 1048.07L852.144 1051.51L837.234 1056.1L823.471 1059.54L813.149 1061.84L806.267 1062.98L798.239 1064.13L789.064 1065.28L775.301 1066.43L764.405 1067H742.041L730.571 1066.43L716.809 1065.28L707.633 1064.13L699.605 1062.98L692.723 1061.84L681.254 1059.54L672.079 1057.25L664.051 1054.95L658.316 1053.23L650.288 1050.36L646.847 1049.21L635.378 1044.62L625.056 1040.03L620.468 1037.74L610.146 1032L602.118 1027.41L591.795 1020.52L583.767 1014.79L578.032 1010.2L575.739 1008.48L571.151 1004.46L564.843 998.721L552.227 986.098L547.066 979.787L540.184 971.18L535.597 964.869L532.729 961.426L526.421 951.672L523.554 947.082L521.26 943.639L517.82 936.754L514.379 930.443L508.644 917.246L503.483 904.623L502.91 902.328L501.763 898.885L498.322 887.41L493.735 869.049L491.441 855.279L489.72 843.803L488.573 830.033L488 820.852V788.721L488.573 779.541L489.147 771.508L490.294 761.18L491.441 753.148L492.588 746.262L496.028 729.049L499.469 716.426L504.057 702.656L506.924 694.623L509.791 687.738L517.82 671.672L523.554 661.344L529.289 652.164L535.023 644.131L541.905 634.951L548.786 626.918L564.843 610.852L574.018 602.82L580.9 597.082L593.516 587.902L603.838 581.016L609.572 577.574L619.895 571.836L625.629 568.967L634.804 564.951L642.833 561.508L652.008 558.066L658.89 555.77L666.918 553.475L670.359 552.328L674.946 551.18L691.003 547.738L696.738 546.59L712.794 544.295L724.263 543.148L747.202 542H754.083L771.287 542.574L780.462 543.148L788.49 543.721L797.666 544.869L805.694 546.016L809.135 546.59L826.338 550.033L835.514 552.328L843.542 555.197L846.983 555.77L853.864 558.066L863.04 561.508L868.774 563.803L876.229 567.246L889.992 574.131L902.034 581.016L907.769 584.459L916.944 590.197L927.266 597.082L935.295 602.82L944.47 609.705L955.939 618.885L961.674 624.049L971.996 633.23L988.626 649.869L993.787 655.607L1002.39 664.213L1010.99 673.967L1017.3 680.852L1031.06 696.918L1038.52 706.098L1044.25 712.984L1048.84 718.721L1051.71 722.164L1053.43 724.459ZM614.16 721.016L610.146 727.902L607.279 734.213L602.691 745.689L923.826 746.262L953.072 745.689L934.148 727.328L928.413 721.59L920.385 713.557L914.077 707.246L907.196 700.934L901.461 695.77L896.3 691.18L893.433 688.885L889.418 685.443L883.684 680.852L869.921 670.525L856.158 661.344L845.836 655.607L841.248 653.311L833.22 649.869L827.485 647.574L817.163 644.131L812.575 642.984L808.561 641.836L803.4 640.689L801.106 640.115L794.225 638.967L785.05 637.82L777.021 637.246L762.111 636.672H759.818L750.642 637.246L743.761 637.82L734.586 638.967L724.263 640.689L721.97 641.262L714.515 642.984L710.501 644.131L704.766 645.852L701.325 647L696.738 648.721L691.003 651.016L683.548 654.459L676.667 657.902L671.506 660.77L666.918 663.639L660.036 668.229L655.449 671.672L653.728 672.82L649.714 676.262L647.42 677.984L642.833 682L638.245 686.59L633.084 692.328L627.35 699.787L622.188 707.246L618.174 714.131L614.16 721.016ZM596.956 823.148H977.73L975.437 826.016L972.569 830.033L968.555 835.197L963.394 842.082L957.086 850.115L946.764 863.311L940.456 871.344L933.4 880.525L927.649 886.836L917.297 897.738L912.696 902.328L904.07 910.361L898.894 914.951L894.293 918.967L887.967 924.131L883.941 927.574L872.439 936.18L866.687 940.197L859.786 944.787L855.185 947.656L850.997 949.951L842.969 953.967L832.646 958.557L825.191 961.426L816.016 964.295L806.267 966.59L795.372 968.885L786.77 970.033L779.315 970.607L766.699 971.18H759.244L747.775 970.607L742.614 970.033L737.453 969.459L732.865 968.885L723.117 967.164L716.235 965.443L709.354 963.721L701.899 961.426L696.164 959.131L692.15 957.41L687.562 955.689L682.975 953.393L676.667 949.951L670.359 946.508L664.624 942.492L659.463 939.049L653.728 935.033L647.994 930.443L638.245 921.836L631.937 914.377L626.776 907.492L622.188 900.607L619.321 896.016L614.734 889.131L611.293 882.246L606.705 870.197L602.691 856.426L600.986 849.541L599.835 843.229L596.956 823.148ZM1115.36 799.049L1113.07 802.492L1118.23 809.377L1125.11 818.557L1126.83 820.852L1128.55 823.148L1132.56 828.311L1136.58 833.475L1138.3 835.77L1140.02 838.066L1146.33 846.098L1150.34 851.262L1154.35 856.426L1158.94 862.164L1161.81 865.607L1165.82 870.197L1169.84 874.787L1173.85 879.377L1183.03 889.131L1188.76 894.869L1194.5 900.607L1202.52 908.066L1207.11 912.082L1211.7 916.098L1218.58 921.836L1224.32 926.426L1228.9 929.869L1233.49 933.311L1241.52 939.049L1244.96 941.344L1249.55 944.213L1255.28 947.656L1262.74 951.672L1267.9 953.967L1269.05 954.541L1271.34 955.689L1278.79 958.557L1281.66 959.705L1285.1 960.852L1290.26 962.574L1296.57 964.295L1304.03 966.016L1306.89 966.59L1313.2 967.738L1321.8 968.885L1328.11 969.459L1342.45 970.033H1345.89L1359.65 969.459L1365.39 968.885L1369.97 968.311L1378 967.164L1380.87 966.59L1384.31 966.016L1386.6 965.443L1391.76 964.295L1399.79 962L1408.4 959.131L1412.98 957.41L1417 955.689L1422.16 953.393L1424.45 952.246L1427.89 950.525L1430.19 949.377L1435.35 946.508L1438.21 944.787L1441.66 942.492L1445.1 940.197L1449.11 937.328L1455.99 932.164L1461.73 927.574L1464.02 925.279L1466.31 922.984L1469.75 919.541L1472.05 917.246L1476.06 912.656L1478.36 909.787L1481.8 905.197L1484.09 901.754L1486.39 898.311L1487.53 896.59L1488.68 894.869L1489.25 893.721L1489.83 892.574L1491.55 889.705L1492.69 887.41L1493.84 885.115L1494.41 883.967L1495.56 881.098L1496.71 878.803L1499 873.066L1500.15 870.197L1500.72 868.475L1502.44 863.311L1504.16 857.574L1505.31 852.984L1506.46 847.246L1507.6 841.508L1508.75 833.475L1509.9 823.148L1510.47 813.967L1511.04 799.049L1510.47 788.721L1509.9 779.541L1509.32 774.951L1508.75 769.213L1507.6 762.328L1506.46 756.59L1505.31 751.426L1504.16 746.836L1503.02 742.82L1501.87 739.377L1499 731.344L1497.28 726.754L1493.84 719.295L1491.55 714.705L1489.25 710.689L1486.96 706.672L1483.52 701.508L1480.08 696.918L1475.49 691.18L1468.61 683.721L1464.59 679.705L1459.43 675.115L1453.7 670.525L1451.4 668.803L1446.82 665.361L1443.38 663.066L1433.05 656.754L1426.75 653.311L1419.29 649.869L1415.85 648.148L1411.26 646.426L1406.67 644.705L1403.23 643.557L1397.5 641.836L1388.32 639.541L1383.74 638.393L1381.44 637.82L1378 637.246L1373.41 636.672L1368.83 636.098L1364.24 635.525L1356.21 634.951L1341.3 634.377L1329.83 634.951L1324.1 635.525L1318.36 636.098L1313.78 636.672L1310.33 637.246L1304.6 638.393L1300.01 639.541L1295.42 640.689L1290.84 641.836L1287.4 642.984L1283.96 644.131L1280.51 645.279L1274.78 647.574L1266.75 651.016L1262.16 653.311L1257.58 655.607L1255.28 656.754L1249.55 660.197L1246.11 662.492L1242.67 664.787L1239.23 667.082L1233.49 671.098L1228.9 674.541L1225.46 677.41L1220.88 680.852L1217.43 683.721L1213.99 686.59L1210.55 689.459L1205.97 693.475L1203.67 695.77L1199.66 699.213L1194.5 704.377L1190.48 708.393L1181.31 717.574L1180.16 718.721L1175 724.459L1172.71 727.328L1169.26 730.77L1165.82 734.787L1163.53 737.656L1161.24 740.525L1157.8 744.541L1155.5 747.41L1154.35 749.131L1150.91 753.148L1146.33 758.885L1141.74 764.623L1138.3 769.213L1134.86 773.803L1130.27 779.541L1126.83 784.131L1123.39 788.721L1119.95 793.311L1115.36 799.049Z" stroke="#0DFFCF" stroke-width="23"/>
<line x1="302" y1="187" x2="302" y2="691" stroke="#0DFFCF" stroke-width="12"/>
<circle cx="300.5" cy="704.5" r="17" stroke="#0DFFCF" stroke-width="11"/>
<circle cx="1403" cy="1151" r="23.5" stroke="#0DFFCF" stroke-width="11"/>
<circle cx="1258.5" cy="1199.5" r="20" stroke="#0DFFCF" stroke-width="11"/>
<circle cx="1551" cy="1200" r="14.5" stroke="#0DFFCF" stroke-width="11"/>
<circle cx="1441.5" cy="1204.5" r="21" stroke="#0DFFCF" stroke-width="11"/>
<circle cx="332" cy="257" r="11.5" stroke="#0DFFCF" stroke-width="9"/>
<circle cx="385" cy="257" r="11.5" stroke="#0DFFCF" stroke-width="9"/>
<path d="M296 187H325.25H354.5H383.75H413V1148.5V1194H300.5" stroke="#0DFFCF" stroke-width="3"/>
<path d="M301 894.5L332.5 843.5V269" stroke="#0DFFCF" stroke-width="7"/>
<path d="M356 1194V894.035L385 842.88V269" stroke="#0DFFCF" stroke-width="10"/>
<path d="M611 1029L831.334 999.066C834.051 998.697 836.601 997.537 838.665 995.732L971 880" stroke="#0DFFCF" stroke-width="7"/>
<path d="M526 664L584.634 784.632C586.156 787.764 586.457 791.352 585.476 794.694L576.967 823.687C574.984 830.442 568.294 834.675 561.341 833.572L532.5 829" stroke="#0DFFCF" stroke-width="7"/>
<path d="M526 664L583.668 782.646C585.746 786.919 589.848 789.847 594.565 790.423L667.75 799.348C668.582 799.449 669.421 799.476 670.257 799.427L746.5 795" stroke="#0DFFCF" stroke-width="7"/>
<path d="M825 781.5L963.828 771.342C966.86 771.12 969.737 769.917 972.025 767.915L1012.63 732.386C1017.3 728.302 1018.72 721.634 1016.13 716L986 650.5" stroke="#0DFFCF" stroke-width="7"/>
<path d="M983.5 704L988.929 691.785C990.563 688.108 990.536 683.905 988.854 680.249L957 611" stroke="#0DFFCF" stroke-width="7"/>
<path d="M1235.5 666L1232.97 663.71C1226.31 657.703 1226.94 647.08 1234.25 641.898L1283.5 607" stroke="#0DFFCF" stroke-width="7"/>
<path d="M1201.5 647V647C1198.6 652.559 1202.15 659.303 1208.38 660.054L1224.5 662" stroke="#0DFFCF" stroke-width="7"/>
<path d="M1331.5 628.5V603.226C1331.5 602.41 1331.43 601.596 1331.29 600.793L1328.92 587.373C1328.64 585.802 1328.1 584.291 1327.31 582.904L1324.02 577.098C1321.54 572.711 1316.88 570 1311.84 570H1296.01C1295.34 570 1294.67 570.049 1294 570.146L1273.42 573.138C1269.64 573.689 1266.25 575.763 1264.03 578.879L1251.5 596.5" stroke="#0DFFCF" stroke-width="7"/>
<path d="M1416.5 642L1404.75 622.702C1403.29 620.29 1401.12 618.379 1398.55 617.219L1377 607.5" stroke="#0DFFCF" stroke-width="7"/>
<path d="M655.5 823.5L1000.77 780.831C1005.2 780.284 1009.45 778.755 1013.22 776.356L1048.87 753.631C1051.61 751.888 1054.04 749.715 1056.08 747.194L1072 727.5L1146.5 648L1250.25 563.529C1256.19 558.693 1263.75 556.313 1271.39 556.874L1368.66 564.02C1377.15 564.644 1384.98 568.847 1390.19 575.583L1402.5 591.5" stroke="#0DFFCF" stroke-width="7"/>
<path d="M1017.5 848.5L1019.19 849.186C1029.29 853.28 1040.87 850.643 1048.2 842.581L1056.31 833.66C1062.34 827.028 1064.53 817.759 1062.1 809.131L1056.34 788.641C1053.94 780.138 1056.03 771.001 1061.89 764.383L1151.5 663L1260 560" stroke="#0DFFCF" stroke-width="7"/>
<path d="M969.5 926L1037.5 868.5L1067.6 838.404C1069.52 836.48 1071.13 834.266 1072.37 831.843L1078.46 819.913C1081.08 814.783 1081.92 808.929 1080.85 803.269L1077.95 787.889C1077.65 786.3 1077.5 784.686 1077.5 783.069V777.212C1077.5 770.949 1079.76 764.896 1083.87 760.166L1162.3 669.825C1168.84 662.289 1179.12 659.163 1188.75 661.78L1219 670" stroke="#0DFFCF" stroke-width="7"/>
<path d="M1089.5 858.5L1095.41 771.678C1095.79 766.046 1098 760.692 1101.69 756.424L1131.5 722L1159.35 689.019C1165.59 681.63 1175.42 678.315 1184.86 680.412L1214.5 687" stroke="#0DFFCF" stroke-width="7"/>
<path d="M835.5 1200H1234.5" stroke="#0DFFCF" stroke-width="7"/>
<path d="M1565 1198L1632 1178" stroke="#0DFFCF" stroke-width="7"/>
<path d="M1246 998.5L1131.5 973" stroke="#0DFFCF" stroke-width="7"/>
<path d="M1424.5 1034L1383 1042.5L1277 1050.5" stroke="#0DFFCF" stroke-width="7"/>
<path d="M1466.5 1034.5V992.496C1466.5 983.211 1456.41 977.444 1448.41 982.156L1430 993L1398.78 1017.88C1396.66 1019.58 1394.02 1020.5 1391.3 1020.5H1370.5" stroke="#0DFFCF" stroke-width="7"/>
<path d="M1490 1030V971.08C1490 968.434 1490.87 965.863 1492.49 963.766L1566.5 867.5" stroke="#0DFFCF" stroke-width="7"/>
<path d="M1136 904L1167.5 1011.5" stroke="#0DFFCF" stroke-width="7"/>
<path d="M1161 859L1185 944.5" stroke="#0DFFCF" stroke-width="7"/>
<path d="M972 815.5L1005 793.5L1022.5 797.5" stroke="#0DFFCF" stroke-width="7"/>
<path d="M1529.5 961L1576.03 913.995C1577.33 912.678 1578.36 911.116 1579.05 909.399L1594.18 872.03C1594.72 870.685 1595.05 869.263 1595.16 867.817L1598.5 823V714.061C1598.5 710.194 1596.9 706.499 1594.08 703.852L1509 624" stroke="#0DFFCF" stroke-width="7"/>
<path d="M1525.5 722L1498.85 684.335C1496.56 681.098 1493 678.984 1489.06 678.518L1480 677.446C1475.05 676.86 1470.78 673.687 1468.8 669.113L1454 635" stroke="#0DFFCF" stroke-width="7"/>
<path d="M1528.5 867.5L1523.24 823.532C1523.08 822.184 1522.73 820.868 1522.19 819.623L1505 780" stroke="#0DFFCF" stroke-width="7"/>
<path d="M1539 813L1514 787" stroke="#0DFFCF" stroke-width="7"/>
<path d="M1547.5 764.5L1528.84 760.11C1524.54 759.097 1520.96 756.11 1519.2 752.053L1504 717" stroke="#0DFFCF" stroke-width="7"/>
<path d="M1528.5 672.5L1572.41 710.075C1575.34 712.58 1577.11 716.181 1577.29 720.029L1580.64 788.496C1581.28 801.503 1565.37 808.256 1556.45 798.764L1539.74 780.97C1537.49 778.567 1534.46 777.038 1531.18 776.651L1521 775.446C1516.05 774.86 1511.78 771.687 1509.8 767.113L1495 733" stroke="#0DFFCF" stroke-width="7"/>
<path d="M1502.5 871L1507.75 898.855C1508.54 903.053 1507.37 907.382 1504.57 910.612L1474.73 945.084C1473.91 946.024 1472.98 946.851 1471.94 947.544L1402.54 994.125C1400.23 995.673 1397.52 996.5 1394.74 996.5H1334.5" stroke="#0DFFCF" stroke-width="7"/>
<circle cx="1317" cy="997" r="14.5" stroke="#0DFFCF" stroke-width="11"/>
<circle cx="1357.5" cy="1021.5" r="12" stroke="#0DFFCF" stroke-width="11"/>
<circle cx="570" cy="654" r="14.5" stroke="#0DFFCF" stroke-width="11"/>
<circle cx="706.5" cy="612.5" r="11" stroke="#0DFFCF" stroke-width="11"/>
<circle cx="655.5" cy="775.5" r="11" stroke="#0DFFCF" stroke-width="11"/>
<circle cx="772.5" cy="609.5" r="8" stroke="#0DFFCF" stroke-width="11"/>
<circle cx="625.5" cy="604.5" r="11" stroke="#0DFFCF" stroke-width="11"/>
<circle cx="760" cy="785" r="14.5" stroke="#0DFFCF" stroke-width="11"/>
<circle cx="558" cy="790" r="14.5" stroke="#0DFFCF" stroke-width="11"/>
<circle cx="811" cy="782" r="14.5" stroke="#0DFFCF" stroke-width="11"/>
<circle cx="931" cy="677" r="14.5" stroke="#0DFFCF" stroke-width="11"/>
<circle cx="974" cy="712" r="14.5" stroke="#0DFFCF" stroke-width="11"/>
<circle cx="931" cy="634" r="14.5" stroke="#0DFFCF" stroke-width="11"/>
<circle cx="1521.5" cy="971.5" r="12" stroke="#0DFFCF" stroke-width="11"/>
<circle cx="1436" cy="1025" r="14.5" stroke="#0DFFCF" stroke-width="11"/>
<circle cx="1571" cy="853" r="14.5" stroke="#0DFFCF" stroke-width="11"/>
<circle cx="1530" cy="876" r="11.5" stroke="#0DFFCF" stroke-width="11"/>
<circle cx="1546" cy="821" r="11.5" stroke="#0DFFCF" stroke-width="11"/>
<circle cx="520" cy="825" r="14.5" stroke="#0DFFCF" stroke-width="11"/>
<circle cx="563" cy="863" r="14.5" stroke="#0DFFCF" stroke-width="11"/>
<circle cx="559" cy="923" r="14.5" stroke="#0DFFCF" stroke-width="11"/>
<circle cx="614" cy="979" r="14.5" stroke="#0DFFCF" stroke-width="11"/>
<circle cx="804" cy="1033" r="16.5" stroke="#0DFFCF" stroke-width="7"/>
<circle cx="1501" cy="614" r="14.5" stroke="#0DFFCF" stroke-width="11"/>
<circle cx="1538" cy="728" r="14.5" stroke="#0DFFCF" stroke-width="11"/>
<circle cx="1558" cy="766" r="9.5" stroke="#0DFFCF" stroke-width="11"/>
<circle cx="1259" cy="1004" r="17.5" stroke="#0DFFCF" stroke-width="11"/>
<circle cx="1187" cy="957" r="17.5" stroke="#0DFFCF" stroke-width="11"/>
<circle cx="1093" cy="873" r="14.5" stroke="#0DFFCF" stroke-width="11"/>
<circle cx="1136" cy="893" r="14.5" stroke="#0DFFCF" stroke-width="11"/>
<circle cx="960" cy="935" r="14.5" stroke="#0DFFCF" stroke-width="11"/>
<circle cx="1008.5" cy="840.5" r="11" stroke="#0DFFCF" stroke-width="11"/>
<circle cx="886" cy="986" r="11.5" stroke="#0DFFCF" stroke-width="11"/>
<circle cx="923" cy="962" r="11.5" stroke="#0DFFCF" stroke-width="11"/>
<circle cx="985" cy="868" r="14.5" stroke="#0DFFCF" stroke-width="11"/>
<circle cx="1034" cy="810" r="14.5" stroke="#0DFFCF" stroke-width="11"/>
<circle cx="1415" cy="591" r="14.5" stroke="#0DFFCF" stroke-width="11"/>
<circle cx="1364" cy="600" r="14.5" stroke="#0DFFCF" stroke-width="11"/>
<circle cx="1243" cy="607" r="11.5" stroke="#0DFFCF" stroke-width="11"/>
<circle cx="1209.5" cy="638.5" r="9" stroke="#0DFFCF" stroke-width="11"/>
<circle cx="1297" cy="596" r="14.5" stroke="#0DFFCF" stroke-width="11"/>
<circle cx="1447" cy="624" r="14.5" stroke="#0DFFCF" stroke-width="11"/>
<circle cx="1518" cy="667" r="14.5" stroke="#0DFFCF" stroke-width="11"/>
<path d="M586 647L671.5 605L706.772 584.845C708.887 583.636 711.282 583 713.718 583H746.544C747.842 583 749.133 583.18 750.381 583.536L835.459 607.776C837.138 608.254 838.713 609.043 840.103 610.101L915.5 667.5" stroke="#0DFFCF" stroke-width="7"/>
<path d="M560 731L574.744 694.602C575.57 692.563 576.864 690.747 578.523 689.302L640.096 635.659C641.355 634.562 642.8 633.699 644.364 633.111L696.5 613.5" stroke="#0DFFCF" stroke-width="7"/>
<path d="M870.5 663.5L837.636 625.158C835.604 622.788 832.838 621.164 829.777 620.546L782.5 611" stroke="#0DFFCF" stroke-width="7"/>
<path d="M739 748.5L726.416 767.947C723.959 771.745 719.817 774.122 715.298 774.327L667.5 776.5" stroke="#0DFFCF" stroke-width="7"/>
<path d="M550 781L529.155 747.921C527.747 745.686 527 743.098 527 740.457V670" stroke="#0DFFCF" stroke-width="7"/>
<path d="M551 619L615 605" stroke="#0DFFCF" stroke-width="7"/>
<path d="M551 619L615 605" stroke="#0DFFCF" stroke-width="7"/>
<path d="M630.5 980L705.309 984.889C706.432 984.963 707.543 985.172 708.616 985.511L775 1006.5" stroke="#0DFFCF" stroke-width="7"/>
<path d="M566.5 878L579.813 895.473C581.561 897.768 583.977 899.467 586.728 900.337L650.5 920.5" stroke="#0DFFCF" stroke-width="7"/>
<path d="M569 935L586.307 947.307C589.606 949.653 593.759 950.456 597.695 949.509L658 935" stroke="#0DFFCF" stroke-width="7"/>
<path d="M622 1034L698.5 1039L787 1034" stroke="#0DFFCF" stroke-width="10"/>
<path d="M843 1049L871.916 998.397C872.634 997.14 873.543 996.002 874.611 995.023L879 991" stroke="#0DFFCF" stroke-width="7"/>
<path d="M955 990L933.911 996.803C923.167 1000.27 912.95 990.245 916.21 979.436L918 973.5" stroke="#0DFFCF" stroke-width="7"/>
<path d="M593 587.5L691.5 571.5L812.811 566.184C815.544 566.064 818.252 566.747 820.6 568.149L917.5 626" stroke="#0DFFCF" stroke-width="7"/>
<path d="M595.429 823L594.583 817.5H984.199L979.761 823H595.429Z" fill="#0DFFCF" stroke="#0DFFCF"/>
<path d="M610.587 1032.41L604.168 1026.85L620.605 1024.69L614.712 1030.58L610.587 1032.41Z" fill="#0DFFCF" stroke="#0DFFCF"/>
<path d="M302 691V187H413V1195H302V903.5" stroke="#0DFFCF" stroke-width="23"/>
<path d="M313.5 903.5H290.5L298 893V892.5L306 893L313.5 903.5Z" fill="#0DFFCF"/>
<path d="M1459 1194L1532 1149H1628V1246H837V1149H1045H1380" stroke="#0DFFCF" stroke-width="23"/>
</svg>
