<svg width="1430" height="1100" viewBox="0 0 1430 1100" fill="none" xmlns="http://www.w3.org/2000/svg">
<rect x="116" y="12" width="87" height="984" fill="#160029" stroke="#5500FF" stroke-width="24"/>
<path d="M651 1047V974H1418V1047H651Z" fill="#160029" stroke="#5500FF" stroke-width="24"/>
<path fill-rule="evenodd" clip-rule="evenodd" d="M855.427 537.459L856 536.885L859.441 532.295L866.322 523.689L872.057 516.803L876.644 511.066L879.512 507.623L881.232 505.902L882.379 504.18L883.526 503.033L885.82 500.164L887.54 498.443L896.142 488.115L898.436 485.82L906.464 476.639L909.905 473.197L914.492 468.033L932.843 449.672L940.871 442.213L948.9 435.328L955.781 429.59L961.516 425L966.103 421.557L971.838 416.967L978.146 412.377L993.629 402.049L998.217 399.18L999.364 398.607L1002.8 396.311L1008.54 392.869L1010.83 391.721L1017.71 387.705L1036.06 378.525L1039.51 377.377L1041.8 376.23L1046.39 374.508L1052.12 372.213L1065.88 367.623L1070.47 366.475L1073.91 365.328L1083.09 363.033L1100.29 359.59L1107.17 358.443L1116.35 357.295L1128.96 356.148L1136.99 355.574L1149.61 355H1161.08L1175.99 355.574L1185.16 356.148L1196.63 357.295L1205.81 358.443L1219.57 360.738L1224.16 361.885L1227.6 362.459L1243.66 366.475L1244.8 367.049L1247.1 367.623L1260.86 372.213L1270.03 375.656L1274.62 377.951L1278.06 379.098L1294.12 387.131L1296.99 388.852L1301 391.148L1302.72 392.295L1306.74 394.59L1308.46 395.738L1311.32 397.459L1314.76 399.754L1322.79 405.492L1327.38 408.934L1333.11 413.525L1336.56 416.393L1342.29 421.557L1352.04 430.738L1360.07 439.344L1367.52 447.951L1372.11 453.689L1375.55 458.279L1384.73 472.049L1391.03 482.951L1396.19 492.705L1403.08 508.77L1405.37 514.508L1409.96 528.279L1411.1 532.869L1412.25 536.311L1414.55 546.639L1415.69 551.229L1416.84 556.967L1417.99 563.852L1419.13 571.885L1420.28 581.066L1421.43 595.984L1422 606.885V624.672L1421.43 637.295L1420.85 646.475L1420.28 652.213L1419.13 661.967L1418.56 666.557L1417.99 669.426L1416.84 676.311L1415.69 682.049L1413.4 692.377L1412.25 696.967L1409.96 705L1406.52 715.328L1404.8 719.918L1403.65 723.361L1403.08 724.508L1401.93 727.377L1400.21 731.393L1399.06 734.262L1390.46 751.475L1387.59 756.639L1384.15 762.377L1380.14 768.689L1377.84 772.131L1373.83 777.869L1368.67 784.754L1364.08 790.492L1360.64 794.508L1356.05 799.672L1342.29 813.443L1328.53 824.918L1321.65 830.082L1315.91 834.098L1309.03 838.689L1304.44 841.557L1297.56 845.574L1292.4 848.443L1283.22 853.033L1274.62 857.049L1267.74 859.918L1263.73 861.639L1259.71 862.787L1255.7 864.508L1248.82 866.803L1236.77 870.246L1232.19 871.393L1221.86 873.688L1216.13 874.836L1209.82 875.984L1202.37 877.131L1193.19 878.279L1179.43 879.426L1166.81 880H1147.32L1134.7 879.426L1126.67 878.852L1115.2 877.705L1110.61 877.131L1107.17 876.557L1102.59 875.984L1099.14 875.41L1096.85 874.836L1089.97 873.688L1069.33 868.525L1060.15 865.656L1053.27 863.361L1042.95 859.344L1033.77 855.328L1020.01 848.443L1009.69 842.705L1001.66 838.115L992.482 832.377L985.601 827.787L979.866 823.77L976.426 821.475L964.956 812.869L959.222 808.279L946.606 797.951L936.284 788.77L914.492 766.967L901.876 753.197L892.701 742.869L884.673 733.689L878.938 726.803L865.175 710.164L856 698.689L855.427 697.541L854.853 698.689L853.706 699.262L852.559 700.984L845.678 709.59L839.943 716.475L836.503 720.492L834.209 723.361L831.341 726.803L827.327 731.393L820.446 739.426L815.858 744.59L798.655 763.525L784.318 778.443L774.569 787.623L761.953 799.098L753.925 805.984L737.868 818.607L732.134 822.623L728.693 824.918L721.238 830.082L714.357 834.672L706.902 839.262L700.02 843.279L688.551 849.59L681.67 853.033L669.054 858.77L663.319 861.066L654.144 864.508L639.234 869.098L625.471 872.541L615.149 874.836L608.267 875.984L600.239 877.131L591.064 878.279L577.301 879.426L566.405 880H544.041L532.571 879.426L518.809 878.279L509.633 877.131L501.605 875.984L494.723 874.836L483.254 872.541L474.079 870.246L466.051 867.951L460.316 866.229L452.288 863.361L448.847 862.213L437.378 857.623L427.056 853.033L422.468 850.738L412.146 845L404.118 840.41L393.795 833.525L385.767 827.787L380.032 823.197L377.739 821.475L373.151 817.459L366.843 811.721L354.227 799.098L349.066 792.787L342.184 784.18L337.597 777.869L334.729 774.426L328.421 764.672L325.554 760.082L323.26 756.639L319.82 749.754L316.379 743.443L310.644 730.246L305.483 717.623L304.91 715.328L303.763 711.885L300.322 700.41L295.735 682.049L293.441 668.279L291.72 656.803L290.573 643.033L290 633.852V601.721L290.573 592.541L291.147 584.508L292.294 574.18L293.441 566.148L294.588 559.262L298.028 542.049L301.469 529.426L306.057 515.656L308.924 507.623L311.791 500.738L319.82 484.672L325.554 474.344L331.289 465.164L337.023 457.131L343.905 447.951L350.786 439.918L366.843 423.852L376.018 415.82L382.9 410.082L395.516 400.902L405.838 394.016L411.572 390.574L421.895 384.836L427.629 381.967L436.804 377.951L444.833 374.508L454.008 371.066L460.89 368.77L468.918 366.475L472.359 365.328L476.946 364.18L493.003 360.738L498.738 359.59L514.794 357.295L526.263 356.148L549.202 355H556.083L573.287 355.574L582.462 356.148L590.49 356.721L599.666 357.869L607.694 359.016L611.135 359.59L628.338 363.033L637.514 365.328L645.542 368.197L648.983 368.77L655.864 371.066L665.04 374.508L670.774 376.803L678.229 380.246L691.992 387.131L704.034 394.016L709.769 397.459L718.944 403.197L729.266 410.082L737.295 415.82L746.47 422.705L757.939 431.885L763.674 437.049L773.996 446.23L790.626 462.869L795.787 468.607L804.389 477.213L812.991 486.967L819.299 493.852L833.062 509.918L840.517 519.098L846.251 525.984L850.839 531.721L853.706 535.164L855.427 537.459ZM416.16 534.016L412.146 540.902L409.279 547.213L404.691 558.689L725.826 559.262L755.072 558.689L736.148 540.328L730.413 534.59L722.385 526.557L716.077 520.246L709.196 513.934L703.461 508.77L698.3 504.18L695.433 501.885L691.418 498.443L685.684 493.852L671.921 483.525L658.158 474.344L647.836 468.607L643.248 466.311L635.22 462.869L629.485 460.574L619.163 457.131L614.575 455.984L610.561 454.836L605.4 453.689L603.106 453.115L596.225 451.967L587.05 450.82L579.021 450.246L564.111 449.672H561.818L552.642 450.246L545.761 450.82L536.586 451.967L526.263 453.689L523.97 454.262L516.515 455.984L512.501 457.131L506.766 458.852L503.325 460L498.738 461.721L493.003 464.016L485.548 467.459L478.667 470.902L473.506 473.77L468.918 476.639L462.036 481.23L457.449 484.672L455.728 485.82L451.714 489.262L449.42 490.984L444.833 495L440.245 499.59L435.084 505.328L429.35 512.787L424.188 520.246L420.174 527.131L416.16 534.016ZM398.956 636.148H779.73L777.437 639.016L774.569 643.033L770.555 648.197L765.394 655.082L759.086 663.115L748.764 676.311L742.456 684.344L735.4 693.525L729.649 699.836L719.297 710.738L714.696 715.328L706.07 723.361L700.894 727.951L696.293 731.967L689.967 737.131L685.941 740.574L674.439 749.18L668.687 753.197L661.786 757.787L657.185 760.656L652.997 762.951L644.969 766.967L634.646 771.557L627.191 774.426L618.016 777.295L608.267 779.59L597.372 781.885L588.77 783.033L581.315 783.607L568.699 784.18H561.244L549.775 783.607L544.614 783.033L539.453 782.459L534.865 781.885L525.117 780.164L518.235 778.443L511.354 776.721L503.899 774.426L498.164 772.131L494.15 770.41L489.562 768.689L484.975 766.393L478.667 762.951L472.359 759.508L466.624 755.492L461.463 752.049L455.728 748.033L449.994 743.443L440.245 734.836L433.937 727.377L428.776 720.492L424.188 713.607L421.321 709.016L416.734 702.131L413.293 695.246L408.705 683.197L404.691 669.426L402.986 662.541L401.835 656.229L398.956 636.148ZM917.36 612.049L915.066 615.492L920.227 622.377L927.108 631.557L928.829 633.852L930.549 636.148L934.563 641.311L938.578 646.475L940.298 648.77L942.018 651.066L948.326 659.098L952.34 664.262L956.355 669.426L960.942 675.164L963.81 678.607L967.824 683.197L971.838 687.787L975.852 692.377L985.027 702.131L990.762 707.869L996.496 713.607L1004.52 721.066L1009.11 725.082L1013.7 729.098L1020.58 734.836L1026.32 739.426L1030.9 742.869L1035.49 746.311L1043.52 752.049L1046.96 754.344L1051.55 757.213L1057.28 760.656L1064.74 764.672L1069.9 766.967L1071.05 767.541L1073.34 768.689L1080.79 771.557L1083.66 772.705L1087.1 773.852L1092.26 775.574L1098.57 777.295L1106.03 779.016L1108.89 779.59L1115.2 780.738L1123.8 781.885L1130.11 782.459L1144.45 783.033H1147.89L1161.65 782.459L1167.39 781.885L1171.97 781.311L1180 780.164L1182.87 779.59L1186.31 779.016L1188.6 778.443L1193.76 777.295L1201.79 775L1210.4 772.131L1214.98 770.41L1219 768.689L1224.16 766.393L1226.45 765.246L1229.89 763.525L1232.19 762.377L1237.35 759.508L1240.21 757.787L1243.66 755.492L1247.1 753.197L1251.11 750.328L1257.99 745.164L1263.73 740.574L1266.02 738.279L1268.31 735.984L1271.75 732.541L1274.05 730.246L1278.06 725.656L1280.36 722.787L1283.8 718.197L1286.09 714.754L1288.39 711.311L1289.53 709.59L1290.68 707.869L1291.25 706.721L1291.83 705.574L1293.55 702.705L1294.69 700.41L1295.84 698.115L1296.41 696.967L1297.56 694.098L1298.71 691.803L1301 686.066L1302.15 683.197L1302.72 681.475L1304.44 676.311L1306.16 670.574L1307.31 665.984L1308.46 660.246L1309.6 654.508L1310.75 646.475L1311.9 636.148L1312.47 626.967L1313.04 612.049L1312.47 601.721L1311.9 592.541L1311.32 587.951L1310.75 582.213L1309.6 575.328L1308.46 569.59L1307.31 564.426L1306.16 559.836L1305.02 555.82L1303.87 552.377L1301 544.344L1299.28 539.754L1295.84 532.295L1293.55 527.705L1291.25 523.689L1288.96 519.672L1285.52 514.508L1282.08 509.918L1277.49 504.18L1270.61 496.721L1266.59 492.705L1261.43 488.115L1255.7 483.525L1253.4 481.803L1248.82 478.361L1245.38 476.066L1235.05 469.754L1228.75 466.311L1221.29 462.869L1217.85 461.148L1213.26 459.426L1208.67 457.705L1205.23 456.557L1199.5 454.836L1190.32 452.541L1185.74 451.393L1183.44 450.82L1180 450.246L1175.41 449.672L1170.83 449.098L1166.24 448.525L1158.21 447.951L1143.3 447.377L1131.83 447.951L1126.1 448.525L1120.36 449.098L1115.78 449.672L1112.33 450.246L1106.6 451.393L1102.01 452.541L1097.42 453.689L1092.84 454.836L1089.4 455.984L1085.96 457.131L1082.51 458.279L1076.78 460.574L1068.75 464.016L1064.16 466.311L1059.58 468.607L1057.28 469.754L1051.55 473.197L1048.11 475.492L1044.67 477.787L1041.23 480.082L1035.49 484.098L1030.9 487.541L1027.46 490.41L1022.88 493.852L1019.43 496.721L1015.99 499.59L1012.55 502.459L1007.97 506.475L1005.67 508.77L1001.66 512.213L996.496 517.377L992.482 521.393L983.307 530.574L982.16 531.721L976.999 537.459L974.705 540.328L971.264 543.77L967.824 547.787L965.53 550.656L963.236 553.525L959.795 557.541L957.502 560.41L956.355 562.131L952.914 566.148L948.326 571.885L943.739 577.623L940.298 582.213L936.857 586.803L932.27 592.541L928.829 597.131L925.388 601.721L921.947 606.311L917.36 612.049Z" fill="#160029" stroke="#5500FF" stroke-width="15"/>
</svg>
