<svg width="1352" height="1070" viewBox="0 0 1352 1070" fill="none" xmlns="http://www.w3.org/2000/svg">
<line x1="20" y1="5" x2="20" y2="509" stroke="#45B59B" stroke-width="12"/>
<circle cx="20" cy="518" r="14.5" stroke="#45B59B" stroke-width="11"/>
<circle cx="1115" cy="967" r="14.5" stroke="#45B59B" stroke-width="11"/>
<circle cx="971" cy="1018" r="14.5" stroke="#45B59B" stroke-width="11"/>
<circle cx="1269" cy="1018" r="14.5" stroke="#45B59B" stroke-width="11"/>
<circle cx="1165" cy="1016" r="14.5" stroke="#45B59B" stroke-width="11"/>
<circle cx="50" cy="75" r="11.5" stroke="#45B59B" stroke-width="9"/>
<circle cx="103" cy="75" r="11.5" stroke="#45B59B" stroke-width="9"/>
<path d="M14 5H43.25H72.5H101.75H131V966.5V1012H18.5" stroke="#45B59B" stroke-width="3"/>
<path d="M19 712.5L50.5 661.5V87" stroke="#45B59B" stroke-width="7"/>
<path d="M74 1012V712.035L103 660.88V87" stroke="#45B59B" stroke-width="10"/>
<path d="M329 847L549.334 817.066C552.051 816.697 554.601 815.537 556.665 813.732L689 698" stroke="#45B59B" stroke-width="10"/>
<path d="M244 482L302.808 602.989C304.225 605.906 304.586 609.224 303.83 612.377L272 745" stroke="#45B59B" stroke-width="7"/>
<path d="M244 482L300.779 598.816C303.32 604.044 308.828 607.158 314.617 606.64L428 596.5" stroke="#45B59B" stroke-width="7"/>
<path d="M543 599.5L681.828 589.342C684.86 589.12 687.737 587.917 690.025 585.915L730.63 550.386C735.297 546.302 736.722 539.634 734.13 534L704 468.5" stroke="#45B59B" stroke-width="7"/>
<path d="M854.5 545.5L938 470L1001.5 425" stroke="#45B59B" stroke-width="7"/>
<path d="M373.5 641.5L700.345 607.876C702.741 607.63 705.033 606.769 706.999 605.378L905.824 464.686C906.935 463.9 907.926 462.955 908.765 461.883L971.908 381.149C975.31 376.8 980.95 374.857 986.309 376.187L1120.5 409.5" stroke="#45B59B" stroke-width="10"/>
<path d="M649.5 790L784 641L978 378" stroke="#45B59B" stroke-width="7"/>
<path d="M553.5 1018H952.5" stroke="#45B59B" stroke-width="7"/>
<path d="M1283 1016L1350 996" stroke="#45B59B" stroke-width="7"/>
<path d="M818 683.5L849.5 791L964 816.5" stroke="#45B59B" stroke-width="10"/>
<path d="M795 545L758 617.5" stroke="#45B59B" stroke-width="10"/>
<path d="M1092.5 852L1245.67 792.865C1248.79 791.662 1251.37 789.382 1252.95 786.44L1321.52 659.031C1323.42 655.513 1323.72 651.353 1322.35 647.599L1282.42 538.154C1282.14 537.386 1281.79 536.644 1281.38 535.937L1227 442" stroke="#45B59B" stroke-width="10"/>
<path d="M1298 586L1266 550L1172 453" stroke="#45B59B" stroke-width="10"/>
<path d="M1296 588L1272.59 601.963C1269.34 603.904 1267.01 607.082 1266.14 610.771L1239.23 724.798C1238.44 728.148 1236.44 731.089 1233.62 733.06L1120.61 811.978C1118.26 813.62 1115.46 814.5 1112.6 814.5H1052.5" stroke="#45B59B" stroke-width="10"/>
<circle cx="1035" cy="815" r="14.5" stroke="#45B59B" stroke-width="11"/>
<circle cx="288" cy="472" r="14.5" stroke="#45B59B" stroke-width="11"/>
<circle cx="442" cy="594" r="14.5" stroke="#45B59B" stroke-width="11"/>
<circle cx="529" cy="600" r="14.5" stroke="#45B59B" stroke-width="11"/>
<circle cx="649" cy="495" r="14.5" stroke="#45B59B" stroke-width="11"/>
<circle cx="649" cy="452" r="14.5" stroke="#45B59B" stroke-width="11"/>
<circle cx="1075" cy="859" r="14.5" stroke="#45B59B" stroke-width="11"/>
<circle cx="270" cy="757" r="14.5" stroke="#45B59B" stroke-width="11"/>
<circle cx="332" cy="797" r="14.5" stroke="#45B59B" stroke-width="11"/>
<circle cx="522" cy="851" r="14.5" stroke="#45B59B" stroke-width="11"/>
<circle cx="1219" cy="432" r="14.5" stroke="#45B59B" stroke-width="11"/>
<circle cx="971" cy="827" r="14.5" stroke="#45B59B" stroke-width="11"/>
<circle cx="815" cy="666" r="14.5" stroke="#45B59B" stroke-width="11"/>
<circle cx="638" cy="804" r="14.5" stroke="#45B59B" stroke-width="11"/>
<circle cx="703" cy="686" r="14.5" stroke="#45B59B" stroke-width="11"/>
<circle cx="752" cy="628" r="14.5" stroke="#45B59B" stroke-width="11"/>
<circle cx="1133" cy="409" r="14.5" stroke="#45B59B" stroke-width="11"/>
<circle cx="1015" cy="414" r="14.5" stroke="#45B59B" stroke-width="11"/>
<circle cx="1165" cy="442" r="14.5" stroke="#45B59B" stroke-width="11"/>
<path d="M304 465L471.729 405.546C475.408 404.242 479.465 404.533 482.92 406.349L633.5 485.5" stroke="#45B59B" stroke-width="10"/>
<path d="M348.5 798L423.309 802.889C424.432 802.963 425.543 803.172 426.616 803.511L493 824.5" stroke="#45B59B" stroke-width="10"/>
<path d="M340 852L416.5 857L505 852" stroke="#45B59B" stroke-width="10"/>
<path d="M311 405.5L408.385 389.681C409.127 389.561 409.878 389.5 410.63 389.5H522.709C524.873 389.5 527.009 390.002 528.947 390.967L635.5 444" stroke="#45B59B" stroke-width="11"/>
<path d="M20 509V5H131V1013H20V710.5" stroke="url(#paint0_linear_402_148)" stroke-width="9"/>
<path d="M1177 1012L1250 967H1346V1064H555V967H763H1098" stroke="#45B59B" stroke-width="11"/>
<path fill-rule="evenodd" clip-rule="evenodd" d="M771.427 542.459L772 541.885L775.441 537.295L782.322 528.689L788.057 521.803L792.644 516.066L795.512 512.623L797.232 510.902L798.379 509.18L799.526 508.033L801.82 505.164L803.54 503.443L812.142 493.115L814.436 490.82L822.464 481.639L825.905 478.197L830.492 473.033L848.843 454.672L856.871 447.213L864.9 440.328L871.781 434.59L877.516 430L882.103 426.557L887.838 421.967L894.146 417.377L909.629 407.049L914.217 404.18L915.364 403.607L918.804 401.311L924.539 397.869L926.833 396.721L933.714 392.705L952.065 383.525L955.506 382.377L957.799 381.23L962.387 379.508L968.122 377.213L981.885 372.623L986.472 371.475L989.913 370.328L999.088 368.033L1016.29 364.59L1023.17 363.443L1032.35 362.295L1044.96 361.148L1052.99 360.574L1065.61 360H1077.08L1091.99 360.574L1101.16 361.148L1112.63 362.295L1121.81 363.443L1135.57 365.738L1140.16 366.885L1143.6 367.459L1159.66 371.475L1160.8 372.049L1163.1 372.623L1176.86 377.213L1186.03 380.656L1190.62 382.951L1194.06 384.098L1210.12 392.131L1212.99 393.852L1217 396.148L1218.72 397.295L1222.74 399.59L1224.46 400.738L1227.32 402.459L1230.76 404.754L1238.79 410.492L1243.38 413.934L1249.11 418.525L1252.56 421.393L1258.29 426.557L1268.04 435.738L1276.07 444.344L1283.52 452.951L1288.11 458.689L1291.55 463.279L1300.73 477.049L1307.03 487.951L1312.19 497.705L1319.08 513.77L1321.37 519.508L1325.96 533.279L1327.1 537.869L1328.25 541.311L1330.55 551.639L1331.69 556.229L1332.84 561.967L1333.99 568.852L1335.13 576.885L1336.28 586.066L1337.43 600.984L1338 611.885V629.672L1337.43 642.295L1336.85 651.475L1336.28 657.213L1335.13 666.967L1334.56 671.557L1333.99 674.426L1332.84 681.311L1331.69 687.049L1329.4 697.377L1328.25 701.967L1325.96 710L1322.52 720.328L1320.8 724.918L1319.65 728.361L1319.08 729.508L1317.93 732.377L1316.21 736.393L1315.06 739.262L1306.46 756.475L1303.59 761.639L1300.15 767.377L1296.14 773.689L1293.84 777.131L1289.83 782.869L1284.67 789.754L1280.08 795.492L1276.64 799.508L1272.05 804.672L1258.29 818.443L1244.53 829.918L1237.65 835.082L1231.91 839.098L1225.03 843.689L1220.44 846.557L1213.56 850.574L1208.4 853.443L1199.22 858.033L1190.62 862.049L1183.74 864.918L1179.73 866.639L1175.71 867.787L1171.7 869.508L1164.82 871.803L1152.77 875.246L1148.19 876.393L1137.86 878.688L1132.13 879.836L1125.82 880.984L1118.37 882.131L1109.19 883.279L1095.43 884.426L1082.81 885H1063.32L1050.7 884.426L1042.67 883.852L1031.2 882.705L1026.61 882.131L1023.17 881.557L1018.59 880.984L1015.14 880.41L1012.85 879.836L1005.97 878.688L985.325 873.525L976.15 870.656L969.268 868.361L958.946 864.344L949.771 860.328L936.008 853.443L925.686 847.705L917.658 843.115L908.482 837.377L901.601 832.787L895.866 828.77L892.426 826.475L880.956 817.869L875.222 813.279L862.606 802.951L852.284 793.77L830.492 771.967L817.876 758.197L808.701 747.869L800.673 738.689L794.938 731.803L781.175 715.164L772 703.689L771.427 702.541L770.853 703.689L769.706 704.262L768.559 705.984L761.678 714.59L755.943 721.475L752.503 725.492L750.209 728.361L747.341 731.803L743.327 736.393L736.446 744.426L731.858 749.59L714.655 768.525L700.318 783.443L690.569 792.623L677.953 804.098L669.925 810.984L653.868 823.607L648.134 827.623L644.693 829.918L637.238 835.082L630.357 839.672L622.902 844.262L616.02 848.279L604.551 854.59L597.67 858.033L585.054 863.77L579.319 866.066L570.144 869.508L555.234 874.098L541.471 877.541L531.149 879.836L524.267 880.984L516.239 882.131L507.064 883.279L493.301 884.426L482.405 885H460.041L448.571 884.426L434.809 883.279L425.633 882.131L417.605 880.984L410.723 879.836L399.254 877.541L390.079 875.246L382.051 872.951L376.316 871.229L368.288 868.361L364.847 867.213L353.378 862.623L343.056 858.033L338.468 855.738L328.146 850L320.118 845.41L309.795 838.525L301.767 832.787L296.032 828.197L293.739 826.475L289.151 822.459L282.843 816.721L270.227 804.098L265.066 797.787L258.184 789.18L253.597 782.869L250.729 779.426L244.421 769.672L241.554 765.082L239.26 761.639L235.82 754.754L232.379 748.443L226.644 735.246L221.483 722.623L220.91 720.328L219.763 716.885L216.322 705.41L211.735 687.049L209.441 673.279L207.72 661.803L206.573 648.033L206 638.852V606.721L206.573 597.541L207.147 589.508L208.294 579.18L209.441 571.148L210.588 564.262L214.028 547.049L217.469 534.426L222.057 520.656L224.924 512.623L227.791 505.738L235.82 489.672L241.554 479.344L247.289 470.164L253.023 462.131L259.905 452.951L266.786 444.918L282.843 428.852L292.018 420.82L298.9 415.082L311.516 405.902L321.838 399.016L327.572 395.574L337.895 389.836L343.629 386.967L352.804 382.951L360.833 379.508L370.008 376.066L376.89 373.77L384.918 371.475L388.359 370.328L392.946 369.18L409.003 365.738L414.738 364.59L430.794 362.295L442.263 361.148L465.202 360H472.083L489.287 360.574L498.462 361.148L506.49 361.721L515.666 362.869L523.694 364.016L527.135 364.59L544.338 368.033L553.514 370.328L561.542 373.197L564.983 373.77L571.864 376.066L581.04 379.508L586.774 381.803L594.229 385.246L607.992 392.131L620.034 399.016L625.769 402.459L634.944 408.197L645.266 415.082L653.295 420.82L662.47 427.705L673.939 436.885L679.674 442.049L689.996 451.23L706.626 467.869L711.787 473.607L720.389 482.213L728.991 491.967L735.299 498.852L749.062 514.918L756.517 524.098L762.251 530.984L766.839 536.721L769.706 540.164L771.427 542.459ZM332.16 539.016L328.146 545.902L325.279 552.213L320.691 563.689L641.826 564.262L671.072 563.689L652.148 545.328L646.413 539.59L638.385 531.557L632.077 525.246L625.196 518.934L619.461 513.77L614.3 509.18L611.433 506.885L607.418 503.443L601.684 498.852L587.921 488.525L574.158 479.344L563.836 473.607L559.248 471.311L551.22 467.869L545.485 465.574L535.163 462.131L530.575 460.984L526.561 459.836L521.4 458.689L519.106 458.115L512.225 456.967L503.05 455.82L495.021 455.246L480.111 454.672H477.818L468.642 455.246L461.761 455.82L452.586 456.967L442.263 458.689L439.97 459.262L432.515 460.984L428.501 462.131L422.766 463.852L419.325 465L414.738 466.721L409.003 469.016L401.548 472.459L394.667 475.902L389.506 478.77L384.918 481.639L378.036 486.229L373.449 489.672L371.728 490.82L367.714 494.262L365.42 495.984L360.833 500L356.245 504.59L351.084 510.328L345.35 517.787L340.188 525.246L336.174 532.131L332.16 539.016ZM314.956 641.148H695.73L693.437 644.016L690.569 648.033L686.555 653.197L681.394 660.082L675.086 668.115L664.764 681.311L658.456 689.344L651.4 698.525L645.649 704.836L635.297 715.738L630.696 720.328L622.07 728.361L616.894 732.951L612.293 736.967L605.967 742.131L601.941 745.574L590.439 754.18L584.687 758.197L577.786 762.787L573.185 765.656L568.997 767.951L560.969 771.967L550.646 776.557L543.191 779.426L534.016 782.295L524.267 784.59L513.372 786.885L504.77 788.033L497.315 788.607L484.699 789.18H477.244L465.775 788.607L460.614 788.033L455.453 787.459L450.865 786.885L441.117 785.164L434.235 783.443L427.354 781.721L419.899 779.426L414.164 777.131L410.15 775.41L405.562 773.689L400.975 771.393L394.667 767.951L388.359 764.508L382.624 760.492L377.463 757.049L371.728 753.033L365.994 748.443L356.245 739.836L349.937 732.377L344.776 725.492L340.188 718.607L337.321 714.016L332.734 707.131L329.293 700.246L324.705 688.197L320.691 674.426L318.986 667.541L317.835 661.229L314.956 641.148ZM833.36 617.049L831.066 620.492L836.227 627.377L843.108 636.557L844.829 638.852L846.549 641.148L850.563 646.311L854.578 651.475L856.298 653.77L858.018 656.066L864.326 664.098L868.34 669.262L872.355 674.426L876.942 680.164L879.81 683.607L883.824 688.197L887.838 692.787L891.852 697.377L901.027 707.131L906.762 712.869L912.496 718.607L920.525 726.066L925.112 730.082L929.7 734.098L936.582 739.836L942.316 744.426L946.904 747.869L951.491 751.311L959.52 757.049L962.961 759.344L967.548 762.213L973.283 765.656L980.738 769.672L985.899 771.967L987.046 772.541L989.339 773.689L996.794 776.557L999.662 777.705L1003.1 778.852L1008.26 780.574L1014.57 782.295L1022.03 784.016L1024.89 784.59L1031.2 785.738L1039.8 786.885L1046.11 787.459L1060.45 788.033H1063.89L1077.65 787.459L1083.39 786.885L1087.97 786.311L1096 785.164L1098.87 784.59L1102.31 784.016L1104.6 783.443L1109.76 782.295L1117.79 780L1126.4 777.131L1130.98 775.41L1135 773.689L1140.16 771.393L1142.45 770.246L1145.89 768.525L1148.19 767.377L1153.35 764.508L1156.21 762.787L1159.66 760.492L1163.1 758.197L1167.11 755.328L1173.99 750.164L1179.73 745.574L1182.02 743.279L1184.31 740.984L1187.75 737.541L1190.05 735.246L1194.06 730.656L1196.36 727.787L1199.8 723.197L1202.09 719.754L1204.39 716.311L1205.53 714.59L1206.68 712.869L1207.25 711.721L1207.83 710.574L1209.55 707.705L1210.69 705.41L1211.84 703.115L1212.41 701.967L1213.56 699.098L1214.71 696.803L1217 691.066L1218.15 688.197L1218.72 686.475L1220.44 681.311L1222.16 675.574L1223.31 670.984L1224.46 665.246L1225.6 659.508L1226.75 651.475L1227.9 641.148L1228.47 631.967L1229.04 617.049L1228.47 606.721L1227.9 597.541L1227.32 592.951L1226.75 587.213L1225.6 580.328L1224.46 574.59L1223.31 569.426L1222.16 564.836L1221.02 560.82L1219.87 557.377L1217 549.344L1215.28 544.754L1211.84 537.295L1209.55 532.705L1207.25 528.689L1204.96 524.672L1201.52 519.508L1198.08 514.918L1193.49 509.18L1186.61 501.721L1182.59 497.705L1177.43 493.115L1171.7 488.525L1169.4 486.803L1164.82 483.361L1161.38 481.066L1151.05 474.754L1144.75 471.311L1137.29 467.869L1133.85 466.148L1129.26 464.426L1124.67 462.705L1121.23 461.557L1115.5 459.836L1106.32 457.541L1101.74 456.393L1099.44 455.82L1096 455.246L1091.41 454.672L1086.83 454.098L1082.24 453.525L1074.21 452.951L1059.3 452.377L1047.83 452.951L1042.1 453.525L1036.36 454.098L1031.78 454.672L1028.33 455.246L1022.6 456.393L1018.01 457.541L1013.42 458.689L1008.84 459.836L1005.4 460.984L1001.96 462.131L998.515 463.279L992.78 465.574L984.752 469.016L980.164 471.311L975.576 473.607L973.283 474.754L967.548 478.197L964.107 480.492L960.667 482.787L957.226 485.082L951.491 489.098L946.904 492.541L943.463 495.41L938.875 498.852L935.435 501.721L931.994 504.59L928.553 507.459L923.966 511.475L921.672 513.77L917.658 517.213L912.496 522.377L908.482 526.393L899.307 535.574L898.16 536.721L892.999 542.459L890.705 545.328L887.264 548.77L883.824 552.787L881.53 555.656L879.236 558.525L875.795 562.541L873.502 565.41L872.355 567.131L868.914 571.148L864.326 576.885L859.739 582.623L856.298 587.213L852.857 591.803L848.27 597.541L844.829 602.131L841.388 606.721L837.947 611.311L833.36 617.049Z" stroke="#45B59B" stroke-width="11"/>
<defs>
<linearGradient id="paint0_linear_402_148" x1="75.5" y1="5" x2="75.5" y2="1013" gradientUnits="userSpaceOnUse">
<stop offset="1" stop-color="#45B59B"/>
</linearGradient>
</defs>
</svg>
