<svg width="1971" height="1971" viewBox="0 0 1971 1971" fill="none" xmlns="http://www.w3.org/2000/svg">
<circle cx="985.5" cy="985.5" r="985.5" fill="black"/>
<path fill-rule="evenodd" clip-rule="evenodd" d="M1121.43 900.459L1122 899.885L1125.44 895.295L1132.32 886.689L1138.06 879.803L1142.64 874.066L1145.51 870.623L1147.23 868.902L1148.38 867.18L1149.53 866.033L1151.82 863.164L1153.54 861.443L1162.14 851.115L1164.44 848.82L1172.46 839.639L1175.9 836.197L1180.49 831.033L1198.84 812.672L1206.87 805.213L1214.9 798.328L1221.78 792.59L1227.52 788L1232.1 784.557L1237.84 779.967L1244.15 775.377L1259.63 765.049L1264.22 762.18L1265.36 761.607L1268.8 759.311L1274.54 755.869L1276.83 754.721L1283.71 750.705L1302.06 741.525L1305.51 740.377L1307.8 739.23L1312.39 737.508L1318.12 735.213L1331.88 730.623L1336.47 729.475L1339.91 728.328L1349.09 726.033L1366.29 722.59L1373.17 721.443L1382.35 720.295L1394.96 719.148L1402.99 718.574L1415.61 718H1427.08L1441.99 718.574L1451.16 719.148L1462.63 720.295L1471.81 721.443L1485.57 723.738L1490.16 724.885L1493.6 725.459L1509.66 729.475L1510.8 730.049L1513.1 730.623L1526.86 735.213L1536.03 738.656L1540.62 740.951L1544.06 742.098L1560.12 750.131L1562.99 751.852L1567 754.148L1568.72 755.295L1572.74 757.59L1574.46 758.738L1577.32 760.459L1580.76 762.754L1588.79 768.492L1593.38 771.934L1599.11 776.525L1602.56 779.393L1608.29 784.557L1618.04 793.738L1626.07 802.344L1633.52 810.951L1638.11 816.689L1641.55 821.279L1650.73 835.049L1657.03 845.951L1662.19 855.705L1669.08 871.77L1671.37 877.508L1675.96 891.279L1677.1 895.869L1678.25 899.311L1680.55 909.639L1681.69 914.229L1682.84 919.967L1683.99 926.852L1685.13 934.885L1686.28 944.066L1687.43 958.984L1688 969.885V987.672L1687.43 1000.3L1686.85 1009.48L1686.28 1015.21L1685.13 1024.97L1684.56 1029.56L1683.99 1032.43L1682.84 1039.31L1681.69 1045.05L1679.4 1055.38L1678.25 1059.97L1675.96 1068L1672.52 1078.33L1670.8 1082.92L1669.65 1086.36L1669.08 1087.51L1667.93 1090.38L1666.21 1094.39L1665.06 1097.26L1656.46 1114.48L1653.59 1119.64L1650.15 1125.38L1646.14 1131.69L1643.84 1135.13L1639.83 1140.87L1634.67 1147.75L1630.08 1153.49L1626.64 1157.51L1622.05 1162.67L1608.29 1176.44L1594.53 1187.92L1587.65 1193.08L1581.91 1197.1L1575.03 1201.69L1570.44 1204.56L1563.56 1208.57L1558.4 1211.44L1549.22 1216.03L1540.62 1220.05L1533.74 1222.92L1529.73 1224.64L1525.71 1225.79L1521.7 1227.51L1514.82 1229.8L1502.77 1233.25L1498.19 1234.39L1487.86 1236.69L1482.13 1237.84L1475.82 1238.98L1468.37 1240.13L1459.19 1241.28L1445.43 1242.43L1432.81 1243H1413.32L1400.7 1242.43L1392.67 1241.85L1381.2 1240.7L1376.61 1240.13L1373.17 1239.56L1368.59 1238.98L1365.14 1238.41L1362.85 1237.84L1355.97 1236.69L1335.33 1231.52L1326.15 1228.66L1319.27 1226.36L1308.95 1222.34L1299.77 1218.33L1286.01 1211.44L1275.69 1205.7L1267.66 1201.11L1258.48 1195.38L1251.6 1190.79L1245.87 1186.77L1242.43 1184.48L1230.96 1175.87L1225.22 1171.28L1212.61 1160.95L1202.28 1151.77L1180.49 1129.97L1167.88 1116.2L1158.7 1105.87L1150.67 1096.69L1144.94 1089.8L1131.18 1073.16L1122 1061.69L1121.43 1060.54L1120.85 1061.69L1119.71 1062.26L1118.56 1063.98L1111.68 1072.59L1105.94 1079.48L1102.5 1083.49L1100.21 1086.36L1097.34 1089.8L1093.33 1094.39L1086.45 1102.43L1081.86 1107.59L1064.65 1126.52L1050.32 1141.44L1040.57 1150.62L1027.95 1162.1L1019.93 1168.98L1003.87 1181.61L998.134 1185.62L994.693 1187.92L987.238 1193.08L980.357 1197.67L972.902 1202.26L966.02 1206.28L954.551 1212.59L947.67 1216.03L935.054 1221.77L929.319 1224.07L920.144 1227.51L905.234 1232.1L891.471 1235.54L881.149 1237.84L874.267 1238.98L866.239 1240.13L857.064 1241.28L843.301 1242.43L832.405 1243H810.041L798.571 1242.43L784.809 1241.28L775.633 1240.13L767.605 1238.98L760.723 1237.84L749.254 1235.54L740.079 1233.25L732.051 1230.95L726.316 1229.23L718.288 1226.36L714.847 1225.21L703.378 1220.62L693.056 1216.03L688.468 1213.74L678.146 1208L670.118 1203.41L659.795 1196.52L651.767 1190.79L646.032 1186.2L643.739 1184.48L639.151 1180.46L632.843 1174.72L620.227 1162.1L615.066 1155.79L608.184 1147.18L603.597 1140.87L600.729 1137.43L594.421 1127.67L591.554 1123.08L589.26 1119.64L585.82 1112.75L582.379 1106.44L576.644 1093.25L571.483 1080.62L570.91 1078.33L569.763 1074.89L566.322 1063.41L561.735 1045.05L559.441 1031.28L557.72 1019.8L556.573 1006.03L556 996.852V964.721L556.573 955.541L557.147 947.508L558.294 937.18L559.441 929.148L560.588 922.262L564.028 905.049L567.469 892.426L572.057 878.656L574.924 870.623L577.791 863.738L585.82 847.672L591.554 837.344L597.289 828.164L603.023 820.131L609.905 810.951L616.786 802.918L632.843 786.852L642.018 778.82L648.9 773.082L661.516 763.902L671.838 757.016L677.572 753.574L687.895 747.836L693.629 744.967L702.804 740.951L710.833 737.508L720.008 734.066L726.89 731.77L734.918 729.475L738.359 728.328L742.946 727.18L759.003 723.738L764.738 722.59L780.794 720.295L792.263 719.148L815.202 718H822.083L839.287 718.574L848.462 719.148L856.49 719.721L865.666 720.869L873.694 722.016L877.135 722.59L894.338 726.033L903.514 728.328L911.542 731.197L914.983 731.77L921.864 734.066L931.04 737.508L936.774 739.803L944.229 743.246L957.992 750.131L970.034 757.016L975.769 760.459L984.944 766.197L995.266 773.082L1003.29 778.82L1012.47 785.705L1023.94 794.885L1029.67 800.049L1040 809.23L1056.63 825.869L1061.79 831.607L1070.39 840.213L1078.99 849.967L1085.3 856.852L1099.06 872.918L1106.52 882.098L1112.25 888.984L1116.84 894.721L1119.71 898.164L1121.43 900.459ZM682.16 897.016L678.146 903.902L675.279 910.213L670.691 921.689L991.826 922.262L1021.07 921.689L1002.15 903.328L996.413 897.59L988.385 889.557L982.077 883.246L975.196 876.934L969.461 871.77L964.3 867.18L961.433 864.885L957.418 861.443L951.684 856.852L937.921 846.525L924.158 837.344L913.836 831.607L909.248 829.311L901.22 825.869L895.485 823.574L885.163 820.131L880.575 818.984L876.561 817.836L871.4 816.689L869.106 816.115L862.225 814.967L853.05 813.82L845.021 813.246L830.111 812.672H827.818L818.642 813.246L811.761 813.82L802.586 814.967L792.263 816.689L789.97 817.262L782.515 818.984L778.501 820.131L772.766 821.852L769.325 823L764.738 824.721L759.003 827.016L751.548 830.459L744.667 833.902L739.506 836.77L734.918 839.639L728.036 844.229L723.449 847.672L721.728 848.82L717.714 852.262L715.42 853.984L710.833 858L706.245 862.59L701.084 868.328L695.35 875.787L690.188 883.246L686.174 890.131L682.16 897.016ZM664.956 999.148H1045.73L1043.44 1002.02L1040.57 1006.03L1036.56 1011.2L1031.39 1018.08L1025.09 1026.11L1014.76 1039.31L1008.46 1047.34L1001.4 1056.52L995.649 1062.84L985.297 1073.74L980.696 1078.33L972.07 1086.36L966.894 1090.95L962.293 1094.97L955.967 1100.13L951.941 1103.57L940.439 1112.18L934.687 1116.2L927.786 1120.79L923.185 1123.66L918.997 1125.95L910.969 1129.97L900.646 1134.56L893.191 1137.43L884.016 1140.3L874.267 1142.59L863.372 1144.89L854.77 1146.03L847.315 1146.61L834.699 1147.18H827.244L815.775 1146.61L810.614 1146.03L805.453 1145.46L800.865 1144.89L791.117 1143.16L784.235 1141.44L777.354 1139.72L769.899 1137.43L764.164 1135.13L760.15 1133.41L755.562 1131.69L750.975 1129.39L744.667 1125.95L738.359 1122.51L732.624 1118.49L727.463 1115.05L721.728 1111.03L715.994 1106.44L706.245 1097.84L699.937 1090.38L694.776 1083.49L690.188 1076.61L687.321 1072.02L682.734 1065.13L679.293 1058.25L674.705 1046.2L670.691 1032.43L668.986 1025.54L667.835 1019.23L664.956 999.148ZM1183.36 975.049L1181.07 978.492L1186.23 985.377L1193.11 994.557L1194.83 996.852L1196.55 999.148L1200.56 1004.31L1204.58 1009.48L1206.3 1011.77L1208.02 1014.07L1214.33 1022.1L1218.34 1027.26L1222.35 1032.43L1226.94 1038.16L1229.81 1041.61L1233.82 1046.2L1237.84 1050.79L1241.85 1055.38L1251.03 1065.13L1256.76 1070.87L1262.5 1076.61L1270.52 1084.07L1275.11 1088.08L1279.7 1092.1L1286.58 1097.84L1292.32 1102.43L1296.9 1105.87L1301.49 1109.31L1309.52 1115.05L1312.96 1117.34L1317.55 1120.21L1323.28 1123.66L1330.74 1127.67L1335.9 1129.97L1337.05 1130.54L1339.34 1131.69L1346.79 1134.56L1349.66 1135.7L1353.1 1136.85L1358.26 1138.57L1364.57 1140.3L1372.03 1142.02L1374.89 1142.59L1381.2 1143.74L1389.8 1144.89L1396.11 1145.46L1410.45 1146.03H1413.89L1427.65 1145.46L1433.39 1144.89L1437.97 1144.31L1446 1143.16L1448.87 1142.59L1452.31 1142.02L1454.6 1141.44L1459.76 1140.3L1467.79 1138L1476.4 1135.13L1480.98 1133.41L1485 1131.69L1490.16 1129.39L1492.45 1128.25L1495.89 1126.52L1498.19 1125.38L1503.35 1122.51L1506.21 1120.79L1509.66 1118.49L1513.1 1116.2L1517.11 1113.33L1523.99 1108.16L1529.73 1103.57L1532.02 1101.28L1534.31 1098.98L1537.75 1095.54L1540.05 1093.25L1544.06 1088.66L1546.36 1085.79L1549.8 1081.2L1552.09 1077.75L1554.39 1074.31L1555.53 1072.59L1556.68 1070.87L1557.25 1069.72L1557.83 1068.57L1559.55 1065.7L1560.69 1063.41L1561.84 1061.11L1562.41 1059.97L1563.56 1057.1L1564.71 1054.8L1567 1049.07L1568.15 1046.2L1568.72 1044.48L1570.44 1039.31L1572.16 1033.57L1573.31 1028.98L1574.46 1023.25L1575.6 1017.51L1576.75 1009.48L1577.9 999.148L1578.47 989.967L1579.04 975.049L1578.47 964.721L1577.9 955.541L1577.32 950.951L1576.75 945.213L1575.6 938.328L1574.46 932.59L1573.31 927.426L1572.16 922.836L1571.02 918.82L1569.87 915.377L1567 907.344L1565.28 902.754L1561.84 895.295L1559.55 890.705L1557.25 886.689L1554.96 882.672L1551.52 877.508L1548.08 872.918L1543.49 867.18L1536.61 859.721L1532.59 855.705L1527.43 851.115L1521.7 846.525L1519.4 844.803L1514.82 841.361L1511.38 839.066L1501.05 832.754L1494.75 829.311L1487.29 825.869L1483.85 824.148L1479.26 822.426L1474.67 820.705L1471.23 819.557L1465.5 817.836L1456.32 815.541L1451.74 814.393L1449.44 813.82L1446 813.246L1441.41 812.672L1436.83 812.098L1432.24 811.525L1424.21 810.951L1409.3 810.377L1397.83 810.951L1392.1 811.525L1386.36 812.098L1381.78 812.672L1378.33 813.246L1372.6 814.393L1368.01 815.541L1363.42 816.689L1358.84 817.836L1355.4 818.984L1351.96 820.131L1348.51 821.279L1342.78 823.574L1334.75 827.016L1330.16 829.311L1325.58 831.607L1323.28 832.754L1317.55 836.197L1314.11 838.492L1310.67 840.787L1307.23 843.082L1301.49 847.098L1296.9 850.541L1293.46 853.41L1288.88 856.852L1285.43 859.721L1281.99 862.59L1278.55 865.459L1273.97 869.475L1271.67 871.77L1267.66 875.213L1262.5 880.377L1258.48 884.393L1249.31 893.574L1248.16 894.721L1243 900.459L1240.71 903.328L1237.26 906.77L1233.82 910.787L1231.53 913.656L1229.24 916.525L1225.8 920.541L1223.5 923.41L1222.35 925.131L1218.91 929.148L1214.33 934.885L1209.74 940.623L1206.3 945.213L1202.86 949.803L1198.27 955.541L1194.83 960.131L1191.39 964.721L1187.95 969.311L1183.36 975.049Z" stroke="#0DFFCF" stroke-width="23"/>
<line x1="370" y1="363" x2="370" y2="867" stroke="#0DFFCF" stroke-width="12"/>
<circle cx="368.5" cy="880.5" r="17" stroke="#0DFFCF" stroke-width="11"/>
<circle cx="1471" cy="1327" r="23.5" stroke="#0DFFCF" stroke-width="11"/>
<circle cx="1326.5" cy="1375.5" r="20" stroke="#0DFFCF" stroke-width="11"/>
<circle cx="1619" cy="1376" r="14.5" stroke="#0DFFCF" stroke-width="11"/>
<circle cx="1509.5" cy="1380.5" r="21" stroke="#0DFFCF" stroke-width="11"/>
<circle cx="400" cy="433" r="11.5" stroke="#0DFFCF" stroke-width="9"/>
<circle cx="453" cy="433" r="11.5" stroke="#0DFFCF" stroke-width="9"/>
<path d="M364 363H393.25H422.5H451.75H481V1324.5V1370H368.5" stroke="#0DFFCF" stroke-width="3"/>
<path d="M369 1070.5L400.5 1019.5V445" stroke="#0DFFCF" stroke-width="7"/>
<path d="M424 1370V1070.04L453 1018.88V445" stroke="#0DFFCF" stroke-width="10"/>
<path d="M679 1205L899.334 1175.07C902.051 1174.7 904.601 1173.54 906.665 1171.73L1039 1056" stroke="#0DFFCF" stroke-width="10"/>
<path d="M594 840L652.808 960.989C654.225 963.906 654.586 967.224 653.83 970.377L622 1103" stroke="#0DFFCF" stroke-width="7"/>
<path d="M594 840L650.779 956.816C653.32 962.044 658.828 965.158 664.617 964.64L778 954.5" stroke="#0DFFCF" stroke-width="11"/>
<path d="M893 957.5L1031.83 947.342C1034.86 947.12 1037.74 945.917 1040.03 943.915L1080.63 908.386C1085.3 904.302 1086.72 897.634 1084.13 892L1054 826.5" stroke="#0DFFCF" stroke-width="7"/>
<path d="M1204.5 903.5L1288 828L1351.5 783" stroke="#0DFFCF" stroke-width="7"/>
<path d="M723.5 999.5L1050.35 965.876C1052.74 965.63 1055.03 964.769 1057 963.378L1255.82 822.686C1256.94 821.9 1257.93 820.955 1258.76 819.883L1321.91 739.149C1325.31 734.8 1330.95 732.857 1336.31 734.187L1470.5 767.5" stroke="#0DFFCF" stroke-width="10"/>
<path d="M999.5 1148L1134 999L1328 736" stroke="#0DFFCF" stroke-width="7"/>
<path d="M903.5 1376H1302.5" stroke="#0DFFCF" stroke-width="7"/>
<path d="M1633 1374L1700 1354" stroke="#0DFFCF" stroke-width="7"/>
<path d="M1168 1041.5L1199.5 1149L1314 1174.5" stroke="#0DFFCF" stroke-width="13"/>
<path d="M1145 903L1108 975.5" stroke="#0DFFCF" stroke-width="10"/>
<path d="M1442.5 1210L1595.67 1150.87C1598.79 1149.66 1601.37 1147.38 1602.95 1144.44L1671.52 1017.03C1673.42 1013.51 1673.72 1009.35 1672.35 1005.6L1632.42 896.154C1632.14 895.386 1631.79 894.644 1631.38 893.937L1577 800" stroke="#0DFFCF" stroke-width="10"/>
<path d="M1648 944L1616 908L1522 811" stroke="#0DFFCF" stroke-width="10"/>
<path d="M1646 946L1622.59 959.963C1619.34 961.904 1617.01 965.082 1616.14 968.771L1589.23 1082.8C1588.44 1086.15 1586.44 1089.09 1583.62 1091.06L1470.61 1169.98C1468.26 1171.62 1465.46 1172.5 1462.6 1172.5H1402.5" stroke="#0DFFCF" stroke-width="10"/>
<circle cx="1385" cy="1173" r="14.5" stroke="#0DFFCF" stroke-width="11"/>
<circle cx="638" cy="830" r="14.5" stroke="#0DFFCF" stroke-width="11"/>
<circle cx="791" cy="956" r="14.5" stroke="#0DFFCF" stroke-width="11"/>
<circle cx="879" cy="958" r="14.5" stroke="#0DFFCF" stroke-width="11"/>
<circle cx="999" cy="853" r="14.5" stroke="#0DFFCF" stroke-width="11"/>
<circle cx="999" cy="810" r="14.5" stroke="#0DFFCF" stroke-width="11"/>
<circle cx="1425" cy="1217" r="14.5" stroke="#0DFFCF" stroke-width="11"/>
<circle cx="620" cy="1115" r="14.5" stroke="#0DFFCF" stroke-width="11"/>
<circle cx="682" cy="1155" r="14.5" stroke="#0DFFCF" stroke-width="11"/>
<circle cx="872" cy="1209" r="14.5" stroke="#0DFFCF" stroke-width="11"/>
<circle cx="1569" cy="790" r="14.5" stroke="#0DFFCF" stroke-width="11"/>
<circle cx="1327" cy="1180" r="17.5" stroke="#0DFFCF" stroke-width="11"/>
<circle cx="1165" cy="1024" r="14.5" stroke="#0DFFCF" stroke-width="11"/>
<circle cx="988" cy="1162" r="14.5" stroke="#0DFFCF" stroke-width="11"/>
<circle cx="1053" cy="1044" r="14.5" stroke="#0DFFCF" stroke-width="11"/>
<circle cx="1102" cy="986" r="14.5" stroke="#0DFFCF" stroke-width="11"/>
<circle cx="1483" cy="767" r="14.5" stroke="#0DFFCF" stroke-width="11"/>
<circle cx="1365" cy="772" r="14.5" stroke="#0DFFCF" stroke-width="11"/>
<circle cx="1515" cy="800" r="14.5" stroke="#0DFFCF" stroke-width="11"/>
<path d="M654 823L821.729 763.546C825.408 762.242 829.465 762.533 832.92 764.349L983.5 843.5" stroke="#0DFFCF" stroke-width="10"/>
<path d="M698.5 1156L773.309 1160.89C774.432 1160.96 775.543 1161.17 776.616 1161.51L843 1182.5" stroke="#0DFFCF" stroke-width="10"/>
<path d="M690 1210L766.5 1215L855 1210" stroke="#0DFFCF" stroke-width="10"/>
<path d="M661 763.5L758.385 747.681C759.127 747.561 759.878 747.5 760.63 747.5H872.709C874.873 747.5 877.009 748.002 878.947 748.967L985.5 802" stroke="#0DFFCF" stroke-width="11"/>
<path d="M663.429 999L662.583 993.5H1052.2L1047.76 999H663.429Z" fill="#0DFFCF" stroke="#0DFFCF"/>
<path d="M678.587 1208.41L672.168 1202.85L688.605 1200.69L682.712 1206.58L678.587 1208.41Z" fill="#0DFFCF" stroke="#0DFFCF"/>
<path d="M370 867V363H481V1371H370V1079.5" stroke="#0DFFCF" stroke-width="23"/>
<path d="M381.5 1079.5H358.5L366 1069V1068.5L374 1069L381.5 1079.5Z" fill="#0DFFCF"/>
<path d="M1527 1370L1600 1325H1696V1422H905V1325H1113H1448" stroke="#0DFFCF" stroke-width="23"/>
</svg>
